<svg class="animated" id="freepik_stories-basketball-ball" xmlns="http://www.w3.org/2000/svg" viewBox="0 0 500 500" version="1.1" xmlns:xlink="http://www.w3.org/1999/xlink" xmlns:svgjs="http://svgjs.com/svgjs"><style>svg#freepik_stories-basketball-ball:not(.animated) .animable {opacity: 0;}svg#freepik_stories-basketball-ball.animated #freepik--background-complete--inject-173 {animation: 3s Infinite  linear wind;animation-delay: 0s;}svg#freepik_stories-basketball-ball.animated #freepik--Ball--inject-173 {animation: 3s Infinite  linear floating;animation-delay: 0s;}            @keyframes wind {                0% {                    transform: rotate( 0deg );                }                25% {                    transform: rotate( 1deg );                }                75% {                    transform: rotate( -1deg );                }            }                    @keyframes floating {                0% {                    opacity: 1;                    transform: translateY(0px);                }                50% {                    transform: translateY(-10px);                }                100% {                    opacity: 1;                    transform: translateY(0px);                }            }        </style><g id="freepik--background-complete--inject-173" class="animable" style="transform-origin: 250px 253.993px;"><g id="elfotnjfna54e" class="animable" style="transform-origin: 250px 233.243px;"><g id="elvqn4sluzf7" class="animable" style="transform-origin: 250px 221.466px;"><g id="elt0w779wh71" class="animable" style="transform-origin: 249.333px 190.806px;"><path d="M443.92039,328.305h-180.7461c-3.2324,0-5.86229-2.6298-5.86229-5.8623V59.1693c0-3.2324,2.62989-5.8618,5.86229-5.8618h180.7461c3.2324,0,5.8623,2.6294,5.8623,5.8618V322.4427c0,3.2325-2.6299,5.8623-5.8623,5.8623ZM263.17429,53.5575c-3.0947,0-5.61229,2.5176-5.61229,5.6118V322.4427c0,3.0948,2.51759,5.6123,5.61229,5.6123h180.7461c3.0947,0,5.6123-2.5175,5.6123-5.6123V59.1693c0-3.0942-2.5176-5.6118-5.6123-5.6118h-180.7461Z" style="fill: rgb(224, 224, 224); transform-origin: 353.547px 190.806px;" id="elvsbjg2wcd5" class="animable"></path><path d="M235.49269,328.305H54.7461c-3.2324,0-5.8618-2.6298-5.8618-5.8623V59.1693c0-3.2324,2.6294-5.8618,5.8618-5.8618H235.49269c3.2324,0,5.86231,2.6294,5.86231,5.8618V322.4427c0,3.2325-2.62991,5.8623-5.86231,5.8623ZM54.7461,53.5575c-3.0942,0-5.6118,2.5176-5.6118,5.6118V322.4427c0,3.0948,2.5176,5.6123,5.6118,5.6123H235.49269c3.0947,0,5.61231-2.5175,5.61231-5.6123V59.1693c0-3.0942-2.51761-5.6118-5.61231-5.6118H54.7461Z" style="fill: rgb(224, 224, 224); transform-origin: 145.12px 190.806px;" id="el7vrazrwt3d6" class="animable"></path></g><rect x="0" y="389.3744" width="500" height=".25" style="fill: rgb(224, 224, 224); transform-origin: 250px 389.499px;" id="el9ifb2sfj1pr" class="animable"></rect></g><rect x="51.6724" y="403.6389" width="16.06" height=".25" style="fill: rgb(224, 224, 224); transform-origin: 59.7024px 403.764px;" id="elffy9mc8mwan" class="animable"></rect><rect x="170.3524" y="400.9289" width="53.53" height=".25" style="fill: rgb(224, 224, 224); transform-origin: 197.117px 401.054px;" id="elbhb01gbfl1o" class="animable"></rect><rect x="68.7324" y="412.9289" width="36.25" height=".25" style="fill: rgb(224, 224, 224); transform-origin: 86.8574px 413.054px;" id="elk4gdhvc1wm" class="animable"></rect><rect x="378.35239" y="400.7989" width="43.19" height=".25" style="fill: rgb(224, 224, 224); transform-origin: 399.947px 400.924px;" id="elhc92m7299se" class="animable"></rect><rect x="430.45239" y="400.7989" width="6.33" height=".25" style="fill: rgb(224, 224, 224); transform-origin: 433.617px 400.924px;" id="elta5pisickdq" class="animable"></rect><rect x="316.21239" y="407.0289" width="53.89" height=".25" style="fill: rgb(224, 224, 224); transform-origin: 343.157px 407.154px;" id="elsw91n7c405a" class="animable"></rect></g><g id="freepik--freepik--Backboard--inject-314--inject-173" class="animable" style="transform-origin: 249.691px 257.376px;"><rect x="57.0243" y="60.0727" width="385.33279" height="262.3252" style="fill: rgb(230, 230, 230); transform-origin: 249.691px 191.235px;" id="elv422644apzp" class="animable"></rect><g id="eldn0j0nj0et"><g style="opacity: 0.8; transform-origin: 249.718px 191.235px;" class="animable"><rect x="73.4163" y="76.4375" width="352.60349" height="229.5958" style="fill: rgb(245, 245, 245); transform-origin: 249.718px 191.235px;" id="el6eorwzgqhbw" class="animable"></rect></g></g><g id="elcrq20cnejk"><g style="opacity: 0.4; transform-origin: 152.762px 137.734px;" class="animable"><path d="M186.7615,76.4375l-113.3452,80.4919v42.1012S231.45359,76.4375,232.10119,76.4375c.64781,0-45.3397,0-45.3397,0Z" style="fill: rgb(255, 255, 255); transform-origin: 152.762px 137.734px;" id="elbaipuojtuad" class="animable"></path></g></g><g id="el349fx3igtm"><g style="opacity: 0.4; transform-origin: 324.238px 242.812px;" class="animable"><path d="M426.422,178.5397l-204.65111,127.965,45.9989,.579s157.9978-99.0327,158.6454-99.0327c.6479,0,.00681-29.5113,.00681-29.5113Z" style="fill: rgb(255, 255, 255); transform-origin: 324.238px 242.812px;" id="elmtx0sqdq94e" class="animable"></path></g></g><g id="elt8ies5x4xsp"><g style="opacity: 0.4; transform-origin: 208.786px 178.54px;" class="animable"><polygon points="267.72529 76.4375 73.4163 226.8822 73.4163 280.642 344.15489 76.4375 267.72529 76.4375" style="fill: rgb(255, 255, 255); transform-origin: 208.786px 178.54px;" id="elo99q19fsl9n" class="animable"></polygon></g></g><path d="M363.23089,275.0596H142.3735V119.0824h220.85739v155.9772Zm-211.90769-7.4669h202.95799V126.5493H151.3232v141.0434Z" style="fill: rgb(224, 224, 224); transform-origin: 252.802px 197.071px;" id="el0uul68dv3i9" class="animable"></path><g id="elstg9jwjkxhj" class="animable" style="transform-origin: 254.269px 367.686px;"><path d="M202.70569,448.8799c-.059,0-.1143-.0019-.1696-.0074-1.0396-.0922-1.8065-1.0083-1.7143-2.048,.03321-.3908,3.4324-39.216,.0664-50.9159-3.4324-11.9507-36.7496-95.8944-37.0851-96.7405-.3834-.9696,.0885-2.0664,1.0581-2.4517,.9696-.3816,2.0646,.0885,2.4517,1.0581,1.3751,3.4637,33.719,84.965,37.203,97.0907,3.5577,12.3709,.2102,50.6689,.0664,52.2948-.0885,.9807-.9106,1.7199-1.8766,1.7199Z" style="fill: rgb(224, 224, 224); transform-origin: 184.909px 372.732px;" id="else4yw278s6j" class="animable"></path><path d="M310.86039,445.3461c-.966,0-1.7881-.7392-1.8766-1.7199-.14379-1.6258-3.4913-39.9238,.0664-52.2966,3.4876-12.1257,35.8315-93.6251,37.2067-97.0888,.38711-.9697,1.4858-1.4379,2.4517-1.0581,.9696,.3852,1.4415,1.482,1.0581,2.4517-.3355,.8461-33.65269,84.7898-37.0888,96.7386-3.366,11.7036,.0332,50.5269,.0664,50.9177,.0922,1.0397-.6747,1.9559-1.71429,2.048-.05531,.0056-.11061,.0074-.16961,.0074Z" style="fill: rgb(224, 224, 224); transform-origin: 328.659px 369.199px;" id="ela1xxihls6mq" class="animable"></path><path d="M226.82819,448.8799h-.0369c-1.0397-.0203-1.8692-.8812-1.8508-1.9227,.0074-.3078,.5752-30.9116,0-50.3555-.5677-19.3666-12.1257-90.9891-12.24-91.7099-.1696-1.0304,.5309-2.0001,1.55951-2.166,1.01019-.1622,1.99819,.5309,2.16409,1.5614,.4793,2.9549,11.7165,72.5903,12.2917,92.2039,.5751,19.5342,.0037,50.2283,0,50.5362-.0185,1.0304-.8627,1.8526-1.8876,1.8526Z" style="fill: rgb(224, 224, 224); transform-origin: 220.824px 375.791px;" id="eljlb7z8di5jm" class="animable"></path><path d="M282.19219,448.8799c-1.025,0-1.86919-.8222-1.8877-1.8526-.0036-.3079-.5714-31.002,0-50.5362,.5789-19.6136,11.8124-89.249,12.2917-92.2021,.1622-1.0341,1.1576-1.7272,2.1641-1.5632,1.0286,.1659,1.7291,1.1356,1.5595,2.1642-.1143,.7226-11.6686,72.3451-12.24,91.7117-.5715,19.4439-.0074,50.0477,0,50.3555,.0184,1.0415-.8111,1.9024-1.85079,1.9227h-.03681Z" style="fill: rgb(224, 224, 224); transform-origin: 288.197px 375.791px;" id="eld1vwcxe599k" class="animable"></path><path d="M256.654,454.6791c-1.04331,0-1.88761-.8442-1.88761-1.8876v-144.9632c0-1.0434,.8443-1.8876,1.88761-1.8876,1.04339,0,1.88759,.8442,1.88759,1.8876v144.9632c0,1.0434-.8442,1.8876-1.88759,1.8876Z" style="fill: rgb(224, 224, 224); transform-origin: 256.654px 380.31px;" id="eldntcucy3uz" class="animable"></path><path d="M254.26869,309.1832c-25.3022,0-49.115-1.0968-67.0473-3.0895-28.5687-3.1743-30.9577-7.2519-30.9577-11.1561s2.389-7.9819,30.9577-11.1562c17.9323-1.9926,41.7451-3.0895,67.0473-3.0895,25.3059,0,49.1149,1.0969,67.04731,3.0895,28.56869,3.1743,30.95769,7.2519,30.95769,11.1562s-2.389,7.9818-30.95769,11.1561c-17.93241,1.9927-41.74141,3.0895-67.04731,3.0895Zm-87.6452-14.2456c10.3192,3.1743,41.7008,6.6951,87.6452,6.6951s77.326-3.5208,87.6452-6.6951c-10.3192-3.1743-41.70089-6.6952-87.6452-6.6952s-77.326,3.5209-87.6452,6.6952Z" style="fill: rgb(224, 224, 224); transform-origin: 254.269px 294.938px;" id="elpfqqo9ykri" class="animable"></path><path d="M255.82819,354.4787c-19.5214,0-37.8851-.8462-51.7068-2.3817-23.0127-2.5568-23.0127-5.8361-23.0127-7.5984s0-5.0416,23.0127-7.5984c13.8217-1.5355,32.1854-2.3816,51.7068-2.3816s37.8851,.8461,51.7067,2.3816c23.0127,2.5568,23.0127,5.8361,23.0127,7.5984s0,5.0416-23.0127,7.5984c-13.8216,1.5355-32.1854,2.3817-51.7067,2.3817Zm-70.50919-9.9801c4.4941,2.7374,29.91059,6.2048,70.50919,6.2048s66.015-3.4674,70.5092-6.2048c-4.4942-2.7374-29.9107-6.2048-70.5092-6.2048s-66.0151,3.4674-70.50919,6.2048Zm141.57869,.4535h0Z" style="fill: rgb(224, 224, 224); transform-origin: 255.828px 344.499px;" id="elkz0mhbdh9h" class="animable"></path><path d="M256.00509,401.7429c-12.9478,0-55.1907-.5623-55.1907-7.8086s42.2429-7.8104,55.1907-7.8104,55.1908,.5641,55.1908,7.8104-42.24289,7.8086-55.1908,7.8086Zm-50.3647-7.8086c5.0693,1.8673,23.1639,4.0333,50.3647,4.0333s45.2955-2.166,50.3648-4.0333c-5.0693-1.8692-23.16389-4.0351-50.3648-4.0351s-45.2954,2.1659-50.3647,4.0351Zm102.0051,.6728h0Z" style="fill: rgb(224, 224, 224); transform-origin: 256.005px 393.933px;" id="elukk7iksacps" class="animable"></path></g><rect x="229.40869" y="258.2045" width="50.9751" height="26.2335" style="fill: rgb(230, 230, 230); transform-origin: 254.896px 271.321px;" id="el7whtjmvkj0e" class="animable"></rect></g></g><g id="freepik--Shadow--inject-173" class="animable" style="transform-origin: 250px 465.21px;"><path d="M350.15389,465.2097c0,5.1047-44.8404,9.243-100.15389,9.243s-100.1539-4.1383-100.1539-9.243,44.8404-9.2432,100.1539-9.2432,100.15389,4.1383,100.15389,9.2432Z" style="fill: rgb(245, 245, 245); transform-origin: 250px 465.21px;" id="el4ts4kn5x22h" class="animable"></path></g><g id="freepik--Stars--inject-173" class="animable" style="transform-origin: 256.321px 243.028px;"><g id="el5apclvdd4uc" class="animable" style="transform-origin: 256.321px 243.028px;"><polygon points="131.0764 318.2313 132.8785 326.0437 140.6909 327.8458 132.8785 329.6478 131.0764 337.4603 129.2743 329.6478 121.4619 327.8458 129.2743 326.0437 131.0764 318.2313" style="fill: rgb(209, 106, 76); transform-origin: 131.076px 327.846px;" id="elpgewad4u5jk" class="animable"></polygon><polygon points="367.84679 140.7285 369.64879 148.5409 377.46129 150.343 369.64879 152.145 367.84679 159.9575 366.04469 152.145 358.23229 150.343 366.04469 148.5409 367.84679 140.7285" style="fill: rgb(209, 106, 76); transform-origin: 367.847px 150.343px;" id="elhscfzxghh2p" class="animable"></polygon><polygon points="116.0833 238.5351 117.1532 243.1735 121.7916 244.2434 117.1532 245.3133 116.0833 249.9517 115.0135 245.3133 110.3751 244.2434 115.0135 243.1735 116.0833 238.5351" style="fill: rgb(209, 106, 76); transform-origin: 116.083px 244.243px;" id="el6rxxrvkwu8c" class="animable"></polygon><polygon points="171.394 123.7424 172.7889 129.7897 178.8363 131.1847 172.7889 132.5795 171.394 138.6269 169.9992 132.5795 163.9518 131.1847 169.9992 129.7897 171.394 123.7424" style="fill: rgb(209, 106, 76); transform-origin: 171.394px 131.185px;" id="elj4sq6uy2fl" class="animable"></polygon><polygon points="385.85359 172.857 386.38859 175.1762 388.70779 175.7112 386.38859 176.2461 385.85359 178.5653 385.31869 176.2461 382.99949 175.7112 385.31869 175.1762 385.85359 172.857" style="fill: rgb(209, 106, 76); transform-origin: 385.854px 175.711px;" id="elqxhax8o0ey" class="animable"></polygon><polygon points="223.50559 123.4864 224.04059 125.8056 226.35979 126.3406 224.04059 126.8755 223.50559 129.1948 222.97069 126.8755 220.65149 126.3406 222.97069 125.8056 223.50559 123.4864" style="fill: rgb(209, 106, 76); transform-origin: 223.506px 126.341px;" id="elq5qav4yy3td" class="animable"></polygon><polygon points="338.53959 356.862 339.07459 359.1812 341.39379 359.7162 339.07459 360.2511 338.53959 362.5703 338.00469 360.2511 335.68549 359.7162 338.00469 359.1812 338.53959 356.862" style="fill: rgb(209, 106, 76); transform-origin: 338.54px 359.716px;" id="el31lim4m9fzw" class="animable"></polygon><polygon points="399.41239 241.4908 399.94739 243.81 402.26659 244.345 399.94739 244.8799 399.41239 247.1992 398.87749 244.8799 396.55819 244.345 398.87749 243.81 399.41239 241.4908" style="fill: rgb(209, 106, 76); transform-origin: 399.412px 244.345px;" id="elhckw4snvwuw" class="animable"></polygon><polygon points="147.801 163.2395 148.336 165.5587 150.6552 166.0937 148.336 166.6286 147.801 168.9478 147.2661 166.6286 144.9469 166.0937 147.2661 165.5587 147.801 163.2395" style="fill: rgb(209, 106, 76); transform-origin: 147.801px 166.094px;" id="elcl6ta6py3nt" class="animable"></polygon><polygon points="167.4009 339.8616 167.9359 342.1808 170.2551 342.7158 167.9359 343.2507 167.4009 345.5699 166.866 343.2507 164.5468 342.7158 166.866 342.1808 167.4009 339.8616" style="fill: rgb(209, 106, 76); transform-origin: 167.401px 342.716px;" id="el938utkyjdxl" class="animable"></polygon><polygon points="370.10229 322.8321 371.60419 329.3432 378.11529 330.8451 371.60419 332.3469 370.10229 338.8579 368.60049 332.3469 362.08949 330.8451 368.60049 329.3432 370.10229 322.8321" style="fill: rgb(209, 106, 76); transform-origin: 370.102px 330.845px;" id="elgee29ycq0hr" class="animable"></polygon></g></g><g id="freepik--Ball--inject-173" class="animable animator-active" style="transform-origin: 258.48px 242.623px;"><g id="elj7u5tqwsxmk" class="animable" style="transform-origin: 258.48px 242.623px;"><circle cx="258.48022" cy="242.6232" r="104.50796" style="fill: rgb(209, 106, 76); transform-origin: 258.48px 242.623px;" id="el0tj4d0t4h14h" class="animable"></circle><g id="eli4lt55f2f1"><g style="opacity: 0.1; transform-origin: 283.042px 211.066px;" class="animable"><path d="M258.48019,138.1152c-18.6437,0-36.1436,4.8876-51.29819,13.4429-4.53181,11.5854-5.13871,24.679-2.59221,36.9235,3.0975,14.8933,10.5694,28.6111,19.8731,40.6463,19.88411,25.7218,48.65511,44.4368,80.2289,52.1877,14.3498,3.5226,30.4041,4.5943,43.0807-2.997,5.128-3.0709,9.3322-7.3964,12.6064-12.4007,1.7054-7.4912,2.6093-15.2872,2.6093-23.2947,0-57.7182-46.7898-104.508-104.508-104.508Z" style="fill: rgb(255, 255, 255); transform-origin: 283.042px 211.066px;" id="elacrw974o5rf" class="animable"></path></g></g><g id="ellqjvcdraf1"><g style="opacity: 0.1; transform-origin: 289.449px 204.203px;" class="animable"><path d="M341.95459,196.4763c-4.7904-13.1125-13.21659-25.0873-24.7664-32.9289-10.6991-7.264-20.1253-11.7696-32.6253-15.0842-8.3864-2.2239-22.30989-2.1573-30.3144,1.1903-13.0243,6.7909-21.7888,18.0118-22.696,31.6266-.6519,9.7839,4.0541,19.0858,9.23251,27.4125,9.12719,14.6764,20.33079,28.3296,34.49859,38.2278,14.1678,9.8982,31.528,15.8276,48.7439,14.3063,7.25951-.6414,14.9978-2.99,19.1617-8.9711,2.9033-4.1705,3.60981-9.4544,3.9437-14.525,.9172-13.93-.38789-28.1417-5.1783-41.2543Z" style="fill: rgb(255, 255, 255); transform-origin: 289.449px 204.203px;" id="elg7xyw4dhntg" class="animable"></path></g></g><g id="el5h2smw0smbg"><g style="opacity: 0.1; transform-origin: 292.293px 199.031px;" class="animable"><path d="M327.67639,193.8236c-3.22839-8.8366-8.9069-16.9066-16.6903-22.191-7.2102-4.8953-13.5626-7.9317-21.9865-10.1655-5.6517-1.4986-15.0349-1.4537-20.4292,.8022-8.7772,4.5765-14.6836,12.1384-15.295,21.3135-.4393,6.5934,2.7321,12.8621,6.2219,18.4735,6.1509,9.8905,13.7011,19.0916,23.2489,25.762,9.54781,6.6705,21.247,10.6664,32.8489,9.6412,4.8922-.4323,10.1072-2.015,12.9132-6.0457,1.9566-2.8106,2.43271-6.3714,2.6578-9.7885,.6181-9.3876-.2614-18.965-3.4897-27.8017Z" style="fill: rgb(255, 255, 255); transform-origin: 292.293px 199.031px;" id="elm0afvbjk9gr" class="animable"></path></g></g><g id="el40qowig1lx8" class="animable" style="transform-origin: 258.379px 240.325px;"><path d="M214.20119,225.3793c32.5004,5.0523,58.7627-18.5812,83.744-35.311,11.6334-7.7908,24.4224-14.8141,38.2732-17.2759-1.1768-1.3091-2.382-2.5916-3.6227-3.8397-24.8694,5.4443-44.98969,24.1073-66.1855,37.5103-12.4324,7.8617-26.3964,14.4466-41.331,15.0837-3.5891,.1531-7.145-.0971-10.6133-.7125-.2463,1.486-.4867,2.9727-.7026,4.4649,.1465,.0242,.2911,.0573,.4379,.0802Z" style="fill: rgb(38, 50, 56); transform-origin: 274.991px 197.513px;" id="el890u42os53x" class="animable"></path><path d="M188.9553,207.3408c-7.6541-7.9109-11.9985-18.4486-12.6267-29.2751-1.3569,1.7243-2.6683,3.4849-3.9165,5.2942,1.1722,7.5992,4.0116,14.9319,8.5064,21.2357,6.8541,9.6125,17.0782,16.7774,28.4948,19.7797,.2158-1.5083,.4482-3.013,.69571-4.5155-7.95-2.1915-15.261-6.4284-21.1537-12.519Z" style="fill: rgb(38, 50, 56); transform-origin: 191.261px 201.221px;" id="el74llammkacl" class="animable"></path><path d="M211.09269,309.6246c2.3588,10.5726,5.7976,20.9502,10.4195,30.7571,1.9789,.7488,3.9781,1.4556,6.0122,2.0855-9.2136-17.9528-13.927-37.8941-15.6618-58.0908-1.5052-.1125-3.0147-.1607-4.5212-.1423,.6922,8.5357,1.8851,17.0257,3.7513,25.3905Z" style="fill: rgb(38, 50, 56); transform-origin: 217.433px 313.349px;" id="els7qt3cxsvta" class="animable"></path><path d="M211.09839,260.8142c-1.4823-.2084-2.9619-.4338-4.4403-.6711-.131,6.5521-.0197,13.1151,.3751,19.6605,1.49681-.0262,2.9954,.0065,4.4912,.0994-.36-5.5986-.5192-11.2063-.4682-16.7878,.007-.7658,.0303-1.5342,.0422-2.301Z" style="fill: rgb(38, 50, 56); transform-origin: 209.065px 270.023px;" id="elkd79tq4ldh7" class="animable"></path><path d="M213.76329,225.2991c.2159-1.4922,.4563-2.9789,.7026-4.4649,.536-3.2343,1.1212-6.4579,1.81111-9.6545,3.35419-15.5431,8.91979-30.7164,18.14359-43.7719,9.0638-12.829,21.64541-23.4624,36.65041-28.5108-3.25241-.3909-6.54981-.6284-9.887-.7134-24.82531,12.2233-40.39631,37.967-47.401,64.2955-1.52141,5.7184-2.70991,11.5274-3.674,17.3807-.24751,1.5025-.47991,3.0072-.69571,4.5155-1.4642,10.2303-2.24729,20.5763-2.6307,30.8488-.0057,.1533-.0062,.307-.01159,.4603,1.46959,.2389,2.93979,.4735,4.41349,.6827,.2958-10.3698,1.0909-20.7846,2.5788-31.068Z" style="fill: rgb(38, 50, 56); transform-origin: 238.921px 197.275px;" id="eldmrfekixok5" class="animable"></path><path d="M207.03319,279.8036c-7.3676,.1287-14.6675,1.7444-21.1186,5.422-6.15,3.5059-11.3481,8.8118-14.5737,15.0808,.9479,1.4292,1.9284,2.8342,2.9435,4.2128,2.5579-6.2274,7.3686-11.5422,13.1764-15.0322,6.0277-3.6222,12.9184-5.1677,19.8806-5.2529,1.5065-.0184,3.016,.0298,4.5212,.1423,3.796,.2837,7.5627,.9621,11.171,1.9403,24.8901,6.7473,43.3355,26.5067,66.2555,37.3362,7.9335,3.7486,16.487,6.4449,25.1857,7.1921,2.0914-1.3302,4.1428-2.717,6.1298-4.1883-23.45059,.9108-44.376-15.6104-63.0923-28.0467-10.7696-7.1561-22.2077-13.9024-34.8821-17.0038-3.6088-.883-7.3458-1.4696-11.1058-1.7032-1.4958-.0929-2.99439-.1256-4.4912-.0994Z" style="fill: rgb(38, 50, 56); transform-origin: 245.973px 305.32px;" id="el0rqoqpktp1uh" class="animable"></path><path d="M225.28659,262.4104c15.4776,1.3041,31.0277,1.353,46.5477,1.1012,14.9956-.2432,30.005-.6745,44.9476-2.0217,15.3923-1.3878,30.7187-3.7741,45.6277-7.8747,.1639-1.5669,.2819-3.1468,.3757-4.7334-27.5628,7.8187-56.33529,9.4639-84.8524,10.0578-22.2204,.4628-44.7077,.5565-66.7484-2.5725-1.4737-.2092-2.9439-.4438-4.41349-.6827-5.87251-.9547-11.7114-2.1415-17.4997-3.6381-12.2599-3.1699-24.1386-7.692-35.1875-13.8374-.0609,1.4654-.1116,2.9337-.1116,4.4143,0,.218,.0151,.4324,.0165,.6501,16.3594,8.727,34.3421,13.9273,52.6694,16.8698,1.4784,.2373,2.958,.4627,4.4403,.6711,4.7211,.664,9.4568,1.1976,14.1882,1.5962Z" style="fill: rgb(38, 50, 56); transform-origin: 258.379px 250.92px;" id="el2vvtxsq1reu" class="animable"></path></g><path d="M285.90019,192.1494c9.90281-7.4917,20.4974-14.2503,32.0667-18.8659,.8858-.3534,.4994-1.8048-.3988-1.4465-11.7008,4.6681-22.407,11.4384-32.425,19.0172-.7602,.5751-.0135,1.8782,.7571,1.2952h0Z" style="fill: rgb(255, 255, 255); transform-origin: 301.647px 182.038px;" id="elkvzxbk0cicd" class="animable"></path><path d="M315.22029,256.0614c14.297-.8737,28.6772-2.8587,42.5589-6.4336,.9342-.2406,.5382-1.6877-.3987-1.4464-13.75649,3.5426-27.9923,5.5142-42.1602,6.38-.9591,.0586-.9658,1.559,0,1.5h0Z" style="fill: rgb(255, 255, 255); transform-origin: 336.405px 252.109px;" id="elu2naei0r12m" class="animable"></path><g id="eldihdbxd95ku" class="animable" style="transform-origin: 259.326px 277.264px;"><g id="elr4o4indxa"><path d="M222.79749,317.3535c-.6547,.6546-.6546,1.7158,0,2.3705,.6546,.6545,1.7159,.6546,2.37051,0,.65459-.6547,.65449-1.7159,0-2.3705-.65461-.6546-1.71591-.6547-2.37051,0Z" style="opacity: 0.1; transform-origin: 223.983px 318.539px;" class="animable"></path></g><g id="elrbs4wcgywwm"><path d="M216.11539,328.7766c.65461-.6546,.6545-1.7159,0-2.3705-.6546-.6546-1.716-.6547-2.3706-.0001-.6546,.6547-.6545,1.716,.0001,2.3706,.6545,.6546,1.7159,.6546,2.3705,0Z" style="opacity: 0.1; transform-origin: 214.93px 327.591px;" class="animable"></path></g><g id="eljz5kiocuvma"><path d="M234.82819,310.0638c.6546-.6546,.6545-1.7159,0-2.3705-.6546-.6546-1.7159-.6546-2.3706,0-.65459,.6546-.65459,1.716,0,2.3706,.6546,.6545,1.716,.6545,2.3706-.0001Z" style="opacity: 0.1; transform-origin: 233.643px 308.879px;" class="animable"></path></g><g id="elw0sf7akbw5j"><path d="M216.35959,337.0448c.6547-.6547,.6547-1.7159,0-2.3705-.65459-.6547-1.7158-.6547-2.3704,0-.6546,.6545-.6546,1.7158,0,2.3705,.6546,.6546,1.7159,.6545,2.3704,0Z" style="opacity: 0.1; transform-origin: 215.174px 335.859px;" class="animable"></path></g><g id="elajdo6ieox0v"><path d="M207.49759,328.1827c.6546-.6546,.6546-1.7159-.0001-2.3706-.6546-.6546-1.7159-.6546-2.37049,0-.65451,.6546-.65451,1.7159,.00009,2.3705,.6546,.6547,1.716,.6547,2.3705,.0001Z" style="opacity: 0.1; transform-origin: 206.312px 326.997px;" class="animable"></path></g><g id="elye4s71y18op"><path d="M241.13579,307.5277c-.6547,.6546-.6547,1.7159-.0001,2.3705,.6546,.6547,1.7159,.6546,2.3706,0,.6546-.6546,.6546-1.7159,0-2.3705-.6547-.6546-1.7159-.6546-2.3705,0Z" style="opacity: 0.1; transform-origin: 242.321px 308.713px;" class="animable"></path></g><g id="el70daaihbaju"><path d="M232.07289,318.9611c.6546,.6546,1.7158,.6546,2.3704,0s.65471-1.716,.0001-2.3706c-.6546-.6546-1.7159-.6545-2.3705,.0001-.6547,.6546-.6547,1.7159,0,2.3705Z" style="opacity: 0.1; transform-origin: 233.258px 317.776px;" class="animable"></path></g><g id="elfyslxnpbv29"><path d="M213.90159,298.5831c-.6547,.6546-.6547,1.716,0,2.3706,.6546,.6546,1.7158,.6545,2.3705-.0001,.6546-.6546,.6546-1.7158,0-2.3704-.6547-.6547-1.7159-.6547-2.3705-.0001Z" style="opacity: 0.1; transform-origin: 215.087px 299.768px;" class="animable"></path></g><g id="elsvz49sms4p"><path d="M196.2581,316.9432c-.6546,.6545-.6546,1.7159,0,2.3705s1.7159,.6545,2.3705,0c.6546-.6546,.6546-1.7159,0-2.3705-.6547-.6546-1.7159-.6546-2.3705,0Z" style="opacity: 0.1; transform-origin: 197.443px 318.128px;" class="animable"></path></g><g id="elz9u0en52ov"><path d="M207.68119,307.8905c-.6546-.6546-1.7158-.6546-2.3705,0-.6545,.6546-.6546,1.7159,0,2.3705,.6547,.6546,1.716,.6546,2.3705,0,.6546-.6546,.6547-1.7158,0-2.3705Z" style="opacity: 0.1; transform-origin: 206.496px 309.076px;" class="animable"></path></g><g id="el5zigfz66fyf"><path d="M207.29649,319.1583c.65451-.6545,.6546-1.7158,0-2.3705-.6546-.6546-1.716-.6546-2.37049,0-.65471,.6546-.65471,1.716,0,2.3706,.65459,.6546,1.71589,.6545,2.37049-.0001Z" style="opacity: 0.1; transform-origin: 206.111px 317.973px;" class="animable"></path></g><g id="elhpnmm6fqueq"><path d="M213.51669,309.851c.6546,.6546,1.716,.6546,2.3706,0s.6545-1.716,0-2.3705c-.6546-.6546-1.7159-.6547-2.3706-.0001-.6546,.6546-.6546,1.716,0,2.3706Z" style="opacity: 0.1; transform-origin: 214.702px 308.666px;" class="animable"></path></g><g id="el9poajl157t4"><path d="M223.21069,307.7284c-.65469,.6546-.6546,1.716,.0001,2.3706,.6546,.6546,1.7159,.6546,2.3705,0s.6546-1.716,0-2.3706c-.6547-.6546-1.716-.6546-2.3706,0Z" style="opacity: 0.1; transform-origin: 224.396px 308.914px;" class="animable"></path></g><g id="elor2g7fjjek"><path d="M222.57959,298.4176c-.65459,.6546-.6545,1.7159,.0001,2.3705,.6545,.6546,1.7158,.6546,2.3704,0s.6546-1.7159,.0001-2.3705c-.6546-.6546-1.716-.6546-2.3706,0Z" style="opacity: 0.1; transform-origin: 223.765px 299.603px;" class="animable"></path></g><g id="elfq3hef74o0a"><path d="M198.873,325.2113c-.65461-.6546-1.716-.6546-2.3706,0-.3318,.3318-.4938,.768-.4892,1.2028,.7161,.5348,1.4404,1.0592,2.1706,1.5759,.2515-.078,.49-.209,.6891-.4081,.6546-.6546,.6547-1.716,.00011-2.3706Z" style="opacity: 0.1; transform-origin: 197.688px 326.355px;" class="animable"></path></g><g id="elov66s9949q"><path d="M215.92109,319.7592c.6546-.6546,.6546-1.716,0-2.3706s-1.716-.6546-2.3706,0c-.65449,.6546-.65449,1.7159,.0001,2.3706,.6546,.6546,1.716,.6546,2.3705,0Z" style="opacity: 0.1; transform-origin: 214.736px 318.574px;" class="animable"></path></g><g id="elqnyrophczti"><path d="M222.41269,328.6213c.6546,.6546,1.7159,.6545,2.3704,0,.6546-.6546,.6547-1.716,.0001-2.3706s-1.7159-.6545-2.3705,.0001c-.6546,.6545-.6546,1.7159,0,2.3705Z" style="opacity: 0.1; transform-origin: 223.598px 327.436px;" class="animable"></path></g><g id="elm8d5fjlq9xi"><path d="M275.317,310.318c.03039,.3837,.18479,.7594,.47829,1.0529,.65471,.6546,1.716,.6547,2.3706,.0001,.4296-.4297,.5715-1.0335,.43711-1.5835-1.09621,.2079-2.19121,.3763-3.286,.5305Z" style="opacity: 0.1; transform-origin: 276.984px 310.825px;" class="animable"></path></g><g id="ely0zprq696nl"><path d="M270.38319,312.319c.4105-.4104,.563-.9807,.45881-1.5103-1.10211,.0814-2.20291,.1239-3.30341,.1503-.0508,.4854,.1021,.988,.4741,1.3599,.6546,.6547,1.716,.6547,2.3705,.0001Z" style="opacity: 0.1; transform-origin: 269.201px 311.809px;" class="animable"></path></g><g id="elelbkhemvnnl"><path d="M251.40719,325.8231c-.6546,.6546-.6546,1.7159,.0001,2.3705,.6545,.6546,1.7158,.6546,2.3704,0s.6546-1.7159,.0001-2.3705c-.6547-.6546-1.716-.6546-2.3706,0Z" style="opacity: 0.1; transform-origin: 252.592px 327.008px;" class="animable"></path></g><g id="eloia1hv74twb"><path d="M242.34429,334.8859c-.6545,.6546-.6545,1.716,.0001,2.3706,.6545,.6545,1.7159,.6545,2.3705,0,.6546-.6546,.6545-1.716,0-2.3705-.6546-.6546-1.716-.6547-2.3706-.0001Z" style="opacity: 0.1; transform-origin: 243.53px 336.071px;" class="animable"></path></g><g id="elxmc0eqc4krg"><path d="M262.20119,317.3996c-.6546-.6546-1.7158-.6547-2.3705,0-.6546,.6546-.6545,1.7159,.0001,2.3705,.6546,.6545,1.7158,.6546,2.3704,0,.6547-.6546,.6546-1.7159,0-2.3705Z" style="opacity: 0.1; transform-origin: 261.016px 318.585px;" class="animable"></path></g><g id="elhstnk5uzavm"><path d="M243.32789,344.1879c-.6546-.6546-1.71589-.6545-2.3705,.0001-.3809,.3808-.5331,.8987-.4709,1.3947,1.051,.1823,2.1082,.3462,3.1697,.497,.2894-.6205,.1839-1.3796-.3283-1.8918Z" style="opacity: 0.1; transform-origin: 242.144px 344.888px;" class="animable"></path></g><g id="elm99o8zf65x8"><path d="M250.139,337.0272c.65459,.6546,1.71589,.6547,2.37049,.0001,.6547-.6546,.6547-1.716,0-2.3706-.65449-.6545-1.7159-.6545-2.37049,.0001-.65461,.6546-.65461,1.7159,0,2.3704Z" style="opacity: 0.1; transform-origin: 251.324px 335.842px;" class="animable"></path></g><g id="elikxk2qheyx"><path d="M267.62529,319.5409c.6546,.6546,1.716,.6546,2.3706,0s.6546-1.7159,0-2.3705-1.71589-.6546-2.3705,0c-.6546,.6546-.6546,1.716-.0001,2.3705Z" style="opacity: 0.1; transform-origin: 268.811px 318.356px;" class="animable"></path></g><g id="elp4sd33iwsg"><path d="M261.57239,327.9644c.6547-.6546,.65461-1.7159,0-2.3705-.6546-.6546-1.7159-.6546-2.3705,0s-.6546,1.716-.0001,2.3705c.6547,.6546,1.716,.6546,2.3706,0Z" style="opacity: 0.1; transform-origin: 260.387px 326.779px;" class="animable"></path></g><g id="elsx8o7h43l1g"><path d="M233.46629,344.1105c.4996,.1227,.9981,.2482,1.5005,.3638-.42379-.3699-.984-.4917-1.5005-.3638Z" style="opacity: 0.1; transform-origin: 234.217px 344.268px;" class="animable"></path></g><g id="el6vbkkuj4f2m"><path d="M250.96869,310.908c.6546,.6546,1.7158,.6546,2.3704,0,.2953-.2953,.45-.6738,.479-1.0599-1.08109-.2026-2.1619-.4176-3.2417-.6748-.2042,.5878-.0773,1.265,.3923,1.7347Z" style="opacity: 0.1; transform-origin: 252.15px 310.286px;" class="animable"></path></g><g id="elzqmzpvnq0o"><path d="M223.82209,335.6839c-.6546,.6546-.6546,1.716,0,2.3706s1.71591,.6546,2.3705,0c.6546-.6546,.6546-1.7159,0-2.3705-.65459-.6546-1.716-.6546-2.3705-.0001Z" style="opacity: 0.1; transform-origin: 225.007px 336.869px;" class="animable"></path></g><g id="elzw6ro05qne"><path d="M242.54509,316.961c-.6546,.6545-.6546,1.7159,0,2.3705s1.71591,.6545,2.3705,0c.6546-.6546,.6547-1.7159,.0001-2.3705-.65469-.6546-1.716-.6546-2.3706,0Z" style="opacity: 0.1; transform-origin: 243.73px 318.146px;" class="animable"></path></g><g id="elcqzjsbjr12"><path d="M235.85279,326.0239c-.6547-.6546-1.716-.6547-2.3706-.0001-.6546,.6545-.6546,1.7159,.0001,2.3705,.6546,.6546,1.7159,.6546,2.3705,0s.6546-1.7158,0-2.3704Z" style="opacity: 0.1; transform-origin: 234.667px 327.209px;" class="animable"></path></g><g id="eluh88cj3wuy"><path d="M245.09959,325.9886c-.65459-.6546-1.7158-.6546-2.3704,0s-.6546,1.7159,0,2.3705,1.71581,.6546,2.3704,0c.6547-.6546,.6547-1.7159,0-2.3705Z" style="opacity: 0.1; transform-origin: 243.914px 327.174px;" class="animable"></path></g><g id="elp7wvym3o29"><path d="M233.069,335.6488c-.65461,.6546-.65461,1.7159,0,2.3705,.65459,.6546,1.71589,.6545,2.37049,0,.6546-.6546,.6546-1.7159,0-2.3705s-1.7159-.6546-2.37049,0Z" style="opacity: 0.1; transform-origin: 234.254px 336.834px;" class="animable"></path></g><g id="elidc52soxjia"><path d="M262.53879,310.9113c-.8196-.0428-1.6381-.1283-2.4569-.2021,.043,.0554,.0827,.1127,.1336,.1636,.6399,.6399,1.6659,.6497,2.3233,.0385Z" style="opacity: 0.1; transform-origin: 261.31px 311.035px;" class="animable"></path></g><g id="elzpc9ktorpzn"><path d="M251.16289,317.5549c-.6546,.6546-.6546,1.7159,0,2.3705s1.7159,.6546,2.3705,0c.65461-.6546,.65461-1.7159,0-2.3705-.6546-.6546-1.7158-.6546-2.3705,0Z" style="opacity: 0.1; transform-origin: 252.348px 318.74px;" class="animable"></path></g><g id="elt2fd4pibyup"><path d="M167.7262,273.9347c.6545,.6546,1.7159,.6546,2.3704,0,.6546-.6546,.6547-1.716,.0001-2.3705-.6546-.6547-1.7159-.6546-2.3705,0s-.6547,1.7159,0,2.3705Z" style="opacity: 0.1; transform-origin: 168.911px 272.749px;" class="animable"></path></g><g id="elf6zam08rhyk"><path d="M177.3863,264.2745c.6546,.6546,1.7159,.6546,2.3705,0,.6547-.6546,.6547-1.716,.0001-2.3705-.6546-.6546-1.7159-.6545-2.3706,.0001-.6546,.6546-.6546,1.7158,0,2.3704Z" style="opacity: 0.1; transform-origin: 178.572px 263.089px;" class="animable"></path></g><g id="elhid0shgjsnp"><circle cx="189.2279" cy="272.48735" r="1.67616" style="opacity: 0.1; transform-origin: 189.228px 272.487px;" class="animable"></circle></g><g id="elly6bxkc2bbc"><path d="M161.4288,274.09c.6546-.6546,.6546-1.7159,0-2.3705-.6546-.6545-1.7159-.6546-2.3705,0s-.6546,1.716,0,2.3705c.6546,.6546,1.7158,.6546,2.3705,0Z" style="opacity: 0.1; transform-origin: 160.244px 272.905px;" class="animable"></path></g><g id="elxy1pik3oxxa"><path d="M187.8585,262.2744c-.6545,.6546-.6545,1.716,.0001,2.3706,.6546,.6546,1.7159,.6545,2.3705,0,.0586-.0586,.1055-.1238,.1536-.1881-.6237-.8615-1.2354-1.7251-1.8331-2.5912-.2522,.0779-.4914,.2091-.6911,.4087Z" style="opacity: 0.1; transform-origin: 188.875px 263.501px;" class="animable"></path></g><g id="el5ofyalehfzi"><path d="M177.7711,255.3773c.6546,.6546,1.7159,.6545,2.3705-.0001,.6546-.6546,.6546-1.7159,0-2.3705-.6545-.6546-1.7159-.6546-2.3705,0s-.6546,1.716,0,2.3706Z" style="opacity: 0.1; transform-origin: 178.956px 254.192px;" class="animable"></path></g><g id="el2esb7q1w6xj"><path d="M178.7957,271.3373c-.6545,.6545-.6545,1.7159,.0001,2.3705s1.7159,.6546,2.3704,0c.6547-.6546,.6547-1.7158,0-2.3705-.6546-.6546-1.7159-.6546-2.3705,0Z" style="opacity: 0.1; transform-origin: 179.981px 272.523px;" class="animable"></path></g><g id="elpjxueuw778"><path d="M169.1356,280.9974c-.6546,.6546-.6546,1.716,0,2.3706,.6546,.6546,1.7159,.6545,2.3705-.0001,.6546-.6545,.6546-1.7158,0-2.3705-.6546-.6546-1.716-.6546-2.3705,0Z" style="opacity: 0.1; transform-origin: 170.321px 282.183px;" class="animable"></path></g><g id="elx3oos7bmvr"><path d="M170.4814,265.0373c.6547-.6546,.6547-1.7158,0-2.3704-.6545-.6546-1.7158-.6546-2.3705,0-.6546,.6546-.6545,1.7159,0,2.3704,.6547,.6547,1.7159,.6547,2.3705,0Z" style="opacity: 0.1; transform-origin: 169.296px 263.852px;" class="animable"></path></g><g id="el5ssri1g1g2r"><path d="M167.9244,238.1091c.6546,.6545,1.716,.6545,2.3705,0,.6546-.6547,.6545-1.716,0-2.3705-.6546-.6547-1.7159-.6547-2.3705,0-.6545,.6545-.6546,1.7158,0,2.3705Z" style="opacity: 0.1; transform-origin: 169.11px 236.924px;" class="animable"></path></g><g id="eltnd8tc4sjo"><path d="M161.8612,244.1723c-.6546-.6547-1.7159-.6547-2.3705,0-.6546,.6546-.6546,1.7159,0,2.3705,.6545,.6546,1.7159,.6546,2.3705,0,.6546-.6547,.6545-1.716,0-2.3705Z" style="opacity: 0.1; transform-origin: 160.676px 245.358px;" class="animable"></path></g><g id="elxwct8jn2okm"><path d="M168.5242,253.0419c-.6546,.6546-.6546,1.7159,0,2.3705s1.716,.6547,2.3706,.0001c.6546-.6547,.6546-1.716,0-2.3706s-1.716-.6546-2.3706,0Z" style="opacity: 0.1; transform-origin: 169.71px 254.227px;" class="animable"></path></g><g id="el2akd4n2ku6u"><path d="M161.2346,265.0726c.6546-.6546,.6546-1.7159,0-2.3706-.6546-.6546-1.716-.6546-2.3706,0-.6546,.6546-.6546,1.716,.0001,2.3706,.6546,.6546,1.7159,.6546,2.3705,0Z" style="opacity: 0.1; transform-origin: 160.049px 263.887px;" class="animable"></path></g><g id="elrwzdfxolpdf"><path d="M170.5393,246.3773c.6546-.6547,.6546-1.716,0-2.3707-.6546-.6545-1.7159-.6545-2.3706,.0001-.6546,.6546-.6545,1.7159,0,2.3705,.6547,.6546,1.716,.6547,2.3706,.0001Z" style="opacity: 0.1; transform-origin: 169.354px 245.192px;" class="animable"></path></g><g id="els6i45h46aos"><path d="M161.4764,253.0696c-.6546-.6546-1.7159-.6547-2.3705,0-.6546,.6546-.6546,1.7159,0,2.3705s1.7159,.6546,2.3706,0c.6546-.6547,.6545-1.7159-.0001-2.3705Z" style="opacity: 0.1; transform-origin: 160.291px 254.255px;" class="animable"></path></g><g id="elscmk8gg2fji"><path d="M177.5871,243.979c-.6546,.6546-.6546,1.716,0,2.3706,.4908,.4908,1.2104,.6135,1.8156,.3683-.5225-.9891-1.0319-1.9778-1.5288-2.9663-.1013,.0646-.1983,.1389-.2868,.2274Z" style="opacity: 0.1; transform-origin: 178.249px 245.296px;" class="animable"></path></g><g id="elqf559afzvwm"><path d="M161.6731,279.9877c-.2786-.2786-.6316-.4313-.9949-.4727,.3471,.9198,.7069,1.8331,1.079,2.7402,.5617-.6585,.5384-1.645-.0841-2.2675Z" style="opacity: 0.1; transform-origin: 161.419px 280.885px;" class="animable"></path></g><g id="el7k38dl6dd8o"><path d="M204.31459,291.2028c.6546,.6546,1.7159,.6547,2.3705,.0001,.6546-.6547,.6546-1.716,0-2.3706s-1.7159-.6546-2.3705,0c-.65459,.6547-.65459,1.7159,0,2.3705Z" style="opacity: 0.1; transform-origin: 205.5px 290.018px;" class="animable"></path></g><g id="ela28f8u0e4sl"><path d="M179.9234,309.452c.6546-.6545,.6546-1.7159,0-2.3705-.6546-.6545-1.716-.6545-2.3705,0-.2979,.2978-.4531,.6804-.48,1.07,.4804,.596,.967,1.1867,1.4601,1.7718,.4947,.0608,1.0107-.0915,1.3904-.4713Z" style="opacity: 0.1; transform-origin: 178.744px 308.263px;" class="animable"></path></g><g id="elf5s0sswidg"><path d="M195.133,300.734c.6546,.6546,1.7159,.6546,2.3705,0s.6546-1.7159,0-2.3705c-.6546-.6547-1.716-.6547-2.3706,0-.6546,.6546-.6545,1.7159,.0001,2.3705Z" style="opacity: 0.1; transform-origin: 196.318px 299.549px;" class="animable"></path></g><g id="elux7qm0eiw8"><path d="M206.30989,282.7346c-.685-.661-1.3704-1.3028-2.0552-1.9875-.1238,.5432,.0216,1.1354,.4446,1.5584,.4368,.4368,1.0533,.5753,1.6106,.4291Z" style="opacity: 0.1; transform-origin: 205.261px 281.769px;" class="animable"></path></g><g id="ell570w278hjj"><path d="M195.5178,289.4662c-.6546,.6546-.6547,1.7159-.0001,2.3705,.6546,.6547,1.716,.6547,2.3706,0,.6546-.6546,.6546-1.7159-.0001-2.3705-.6546-.6546-1.7158-.6546-2.3704,0Z" style="opacity: 0.1; transform-origin: 196.703px 290.651px;" class="animable"></path></g><g id="elxbibokditfo"><path d="M180.7529,280.9623c-.6546-.6546-1.7158-.6546-2.3704,0-.6546,.6545-.6546,1.7158,0,2.3704,.6545,.6546,1.7159,.6546,2.3704,0,.6547-.6546,.6546-1.7158,0-2.3704Z" style="opacity: 0.1; transform-origin: 179.568px 282.148px;" class="animable"></path></g><g id="eljn1upecdgx"><path d="M185.9866,301.0183c.6546,.6546,1.7159,.6546,2.3705,0s.6546-1.7159,0-2.3705c-.6546-.6545-1.7159-.6546-2.3705,0-.6547,.6546-.6546,1.7159,0,2.3705Z" style="opacity: 0.1; transform-origin: 187.172px 299.833px;" class="animable"></path></g><g id="ele2sjso22jvq"><path d="M190.0108,318.7197c.6546-.6546,.6546-1.716,.0001-2.3705-.6546-.6546-1.7159-.6545-2.3705,.0001-.6546,.6546-.6546,1.7158,0,2.3704,.6545,.6546,1.7158,.6546,2.3704,0Z" style="opacity: 0.1; transform-origin: 188.826px 317.534px;" class="animable"></path></g><g id="eleuuahwyvjwa"><path d="M196.0639,307.9257c-.6546,.6546-.6547,1.7159,0,2.3705,.6545,.6546,1.7158,.6546,2.3705,0,.6545-.6546,.6545-1.7159,0-2.3705-.6547-.6546-1.7159-.6545-2.3705,0Z" style="opacity: 0.1; transform-origin: 197.249px 309.111px;" class="animable"></path></g><g id="elwtjih04ziw9"><path d="M204.65459,298.6183c-.65459,.6546-.65459,1.7159,0,2.3706,.6546,.6546,1.716,.6546,2.3706,0s.6545-1.716-.0001-2.3706-1.7159-.6546-2.3705,0Z" style="opacity: 0.1; transform-origin: 205.84px 299.804px;" class="animable"></path></g><g id="el5a2151gyuqo"><path d="M213.71749,289.5555c-.6546,.6546-.6546,1.7158,0,2.3704s1.7159,.6547,2.37051,.0001c.10489-.1048,.18679-.2227,.258-.3451-.84851-.6747-1.69651-1.3837-2.54441-2.0941-.0275,.0241-.0579,.0425-.0841,.0687Z" style="opacity: 0.1; transform-origin: 214.786px 290.952px;" class="animable"></path></g><g id="elxaz3sud8ord"><path d="M188.6014,306.916c-.6546-.6546-1.7159-.6546-2.3705,0-.6545,.6545-.6546,1.7159,0,2.3705s1.716,.6546,2.3706,0,.6545-1.7159-.0001-2.3705Z" style="opacity: 0.1; transform-origin: 187.416px 308.101px;" class="animable"></path></g><g id="elzhwolg4gq2b"><path d="M171.9447,298.283c-.5626-.5626-1.4245-.6384-2.0716-.2337,.5931,.9462,1.197,1.8849,1.8192,2.8104,.0889-.0597,.1738-.1276,.2524-.2061,.6546-.6546,.6546-1.716,0-2.3706Z" style="opacity: 0.1; transform-origin: 171.154px 299.327px;" class="animable"></path></g><g id="eld209ol5a3ve"><path d="M197.96769,273.9921c-.577-.663-1.1472-1.3277-1.7058-1.9954-.1043,.5296,.0484,1.0999,.4588,1.5103,.3431,.3432,.7976,.5017,1.247,.4851Z" style="opacity: 0.1; transform-origin: 197.099px 272.995px;" class="animable"></path></g><g id="elu450er05te"><path d="M187.6578,282.5699c.6547,.6546,1.716,.6546,2.3705,0,.6547-.6546,.6546-1.7159,0-2.3705-.6546-.6545-1.7158-.6546-2.3705,0-.6545,.6545-.6545,1.7159,0,2.3705Z" style="opacity: 0.1; transform-origin: 188.843px 281.385px;" class="animable"></path></g><g id="el1utayx4zluj"><path d="M287.41279,311.3358c.6545-.6546,.6545-1.716,0-2.3705-.6546-.6546-1.716-.6546-2.3706-.0001-.6546,.6546-.6545,1.7159,.0001,2.3705,.6545,.6546,1.7159,.6547,2.3705,.0001Z" style="opacity: 0.1; transform-origin: 286.227px 310.15px;" class="animable"></path></g><g id="elyv82fjld89g"><path d="M169.3299,290.0149c-.6546,.6545-.6546,1.7159,0,2.3705,.6545,.6545,1.7159,.6545,2.3704,0,.6546-.6546,.6546-1.716,0-2.3705-.6546-.6546-1.7158-.6546-2.3704,0Z" style="opacity: 0.1; transform-origin: 170.515px 291.2px;" class="animable"></path></g><g id="elvk32akkvwmr"><path d="M177.9977,289.8595c-.6546,.6546-.6546,1.716-.0001,2.3705,.6546,.6547,1.716,.6547,2.3706,0,.6546-.6545,.6546-1.7159,0-2.3705s-1.716-.6546-2.3705,0Z" style="opacity: 0.1; transform-origin: 179.183px 291.045px;" class="animable"></path></g><g id="elrm3hez4tpi"><path d="M177.3688,300.4244c.6546,.6546,1.7159,.6545,2.3705,0,.6546-.6547,.6546-1.7159,0-2.3705s-1.7159-.6546-2.3705,0c-.6546,.6545-.6546,1.7159,0,2.3705Z" style="opacity: 0.1; transform-origin: 178.554px 299.239px;" class="animable"></path></g><g id="el9k7wfpnnlo5"><path d="M186.2709,291.8719c.6545,.6546,1.7159,.6546,2.3705,0,.6546-.6546,.6546-1.716,0-2.3705-.6546-.6547-1.7159-.6546-2.3705,0-.6546,.6547-.6546,1.7159,0,2.3705Z" style="opacity: 0.1; transform-origin: 187.456px 290.687px;" class="animable"></path></g><g id="el7tmtlydrbr6"><path d="M195.4525,282.3407c.6546,.6546,1.7159,.6546,2.3705,0,.65459-.6546,.65459-1.7159,0-2.3705-.6545-.6546-1.7159-.6546-2.3705,0s-.6546,1.7159,0,2.3705Z" style="opacity: 0.1; transform-origin: 196.638px 281.155px;" class="animable"></path></g><g id="elajc3c27x23t"><path d="M347.91079,291.8501c-.6546,.6546-.6546,1.716-.0001,2.3705,.3287,.3288,.76,.4919,1.1909,.4905,.4853-.8425,.9571-1.6936,1.41941-2.5507-.06751-.1098-.14451-.2152-.23971-.3104-.6545-.6545-1.7159-.6545-2.3705,.0001Z" style="opacity: 0.1; transform-origin: 348.97px 293.035px;" class="animable"></path></g><g id="elghu089ijuyt"><path d="M276.564,317.793c-.65461,.6546-.65461,1.716,0,2.3705,.65459,.6547,1.71589,.6546,2.37049,0,.6546-.6547,.6547-1.7159,.0001-2.3705-.65459-.6546-1.7159-.6546-2.37059,0Z" style="opacity: 0.1; transform-origin: 277.749px 318.978px;" class="animable"></path></g><g id="el91z3zjcvap8"><path d="M303.27789,336.483c-.2243,.2243-.36589,.4977-.4365,.7849,.7764-.3646,1.5475-.7382,2.3133-1.1211-.6178-.2804-1.3688-.1718-1.8768,.3362Z" style="opacity: 0.1; transform-origin: 303.998px 336.632px;" class="animable"></path></g><g id="eldda9la7poyl"><path d="M312.34069,327.4202c-.6545,.6545-.6545,1.7159,0,2.3704,.6546,.6546,1.716,.6546,2.3706,.0001,.6546-.6546,.6545-1.7159-.0001-2.3705-.6545-.6546-1.7159-.6547-2.3705,0Z" style="opacity: 0.1; transform-origin: 313.526px 328.605px;" class="animable"></path></g><g id="elr5hke8rywme"><path d="M339.48719,302.6441c.6547,.6546,1.716,.6546,2.3706,0,.6547-.6546,.6546-1.7159,0-2.3705s-1.7159-.6546-2.3705,0-.6546,1.716-.0001,2.3705Z" style="opacity: 0.1; transform-origin: 340.673px 301.459px;" class="animable"></path></g><g id="elke4xbj7mhv"><path d="M332.79489,311.707c.6547-.6546,.6547-1.7159,0-2.3706-.6545-.6545-1.71589-.6545-2.3705,.0001-.6546,.6546-.6546,1.7159,0,2.3704,.65461,.6547,1.716,.6547,2.3705,.0001Z" style="opacity: 0.1; transform-origin: 331.61px 310.522px;" class="animable"></path></g><g id="el8w4p13mq78"><path d="M320.76429,318.9966c-.6546,.6546-.6546,1.7159,0,2.3705s1.7159,.6546,2.3705,0c.6546-.6545,.6546-1.7159,0-2.3705-.6546-.6545-1.716-.6545-2.3705,0Z" style="opacity: 0.1; transform-origin: 321.95px 320.182px;" class="animable"></path></g><g id="elxjnlbbryok"><path d="M161.0928,219.4609c.6546-.6546,.6546-1.7159,0-2.3705s-1.7159-.6547-2.3705-.0001-.6546,1.716,0,2.3706,1.7159,.6546,2.3705,0Z" style="opacity: 0.1; transform-origin: 159.908px 218.276px;" class="animable"></path></g><g id="elmb7fxjq9bgs"><path d="M168.7996,226.3683c-.6546,.6547-.6546,1.7159,0,2.3705,.6517,.6518,1.7059,.6536,2.3612,.0076-.3812-.958-.7542-1.9128-1.1177-2.8634-.4482-.0157-.9013,.1431-1.2435,.4853Z" style="opacity: 0.1; transform-origin: 169.735px 227.556px;" class="animable"></path></g><g id="el5jyeqz5x8kl"><path d="M159.3066,235.1446c-.6546,.6546-.6545,1.7159,.0001,2.3705s1.7158,.6546,2.3705,0c.6546-.6546,.6546-1.716,0-2.3705-.6546-.6546-1.7159-.6547-2.3706,0Z" style="opacity: 0.1; transform-origin: 160.492px 236.33px;" class="animable"></path></g><g id="elc2umf1s7j34"><path d="M167.3901,219.3057c.1016,.1015,.2152,.1816,.3333,.2517-.2398-.6809-.4785-1.3611-.7108-2.0364-.2291,.5988-.1052,1.3019,.3775,1.7847Z" style="opacity: 0.1; transform-origin: 167.312px 218.539px;" class="animable"></path></g><g id="elsojonblrpg"><path d="M158.9667,225.3585c-.6547,.6547-.6547,1.716,0,2.3706,.6546,.6547,1.7159,.6546,2.3705,0s.6546-1.7159,0-2.3705-1.7159-.6547-2.3705-.0001Z" style="opacity: 0.1; transform-origin: 160.152px 226.544px;" class="animable"></path></g><g id="elwyh1lc9ilds"><path d="M160.8986,210.4435c.6546-.6546,.6545-1.7159-.0001-2.3706-.2565-.2565-.5758-.4089-.9083-.4644-.3678,1.0345-.72,2.0761-1.0558,3.1253,.6329,.3339,1.4316,.2422,1.9642-.2903Z" style="opacity: 0.1; transform-origin: 160.162px 209.269px;" class="animable"></path></g><g id="elkazin51t8kk"><path d="M339.76259,273.6c-.65459,.6546-.65459,1.716,0,2.3706,.6547,.6546,1.7159,.6546,2.3705,0,.6547-.6546,.6547-1.716,.0001-2.3706s-1.716-.6546-2.3706,0Z" style="opacity: 0.1; transform-origin: 340.948px 274.785px;" class="animable"></path></g><g id="elp31kczmsg0m"><path d="M357.434,255.9286c-.65461,.6547-.65451,1.7159,.00009,2.3705,.6546,.6547,1.7158,.6547,2.3704,0,.6546-.6546,.6547-1.7158,.0001-2.3705-.65459-.6546-1.716-.6546-2.37059,0Z" style="opacity: 0.1; transform-origin: 358.619px 257.114px;" class="animable"></path></g><g id="elt87gfd5u5eh"><path d="M348.37119,264.9914c-.6546,.6547-.6546,1.716,0,2.3706,.6546,.6547,1.7159,.6546,2.3705,0s.6546-1.7158,0-2.3705c-.6546-.6546-1.7159-.6547-2.3705-.0001Z" style="opacity: 0.1; transform-origin: 349.556px 266.177px;" class="animable"></path></g><g id="elp4sqbwrbvso"><path d="M333.07029,282.6629c-.6546-.6546-1.7159-.6546-2.3706,0-.6546,.6546-.6545,1.7159,.0001,2.3705s1.7159,.6546,2.3705,0,.6546-1.7159,0-2.3705Z" style="opacity: 0.1; transform-origin: 331.885px 283.848px;" class="animable"></path></g><g id="elko6kzakblok"><path d="M305.92369,312.1799c.6546-.6546,.6546-1.7158,0-2.3705-.6546-.6546-1.7159-.6546-2.3705,0s-.6546,1.716,0,2.3706,1.7159,.6545,2.3705-.0001Z" style="opacity: 0.1; transform-origin: 304.738px 310.995px;" class="animable"></path></g><g id="elylodlxe23g"><path d="M304.99289,302.6177c.6546-.6546,.6546-1.7159,0-2.3705-.1238-.1238-.2651-.2165-.4125-.2935-.8125,.4567-1.62539,.9241-2.4369,1.3528-.0353,.4701,.1194,.9517,.4789,1.3112,.65461,.6546,1.7159,.6546,2.3705,0Z" style="opacity: 0.1; transform-origin: 303.811px 301.531px;" class="animable"></path></g><g id="elqo3os1ccbg"><path d="M358.39519,248.866c.6546-.6547,.6545-1.716-.0001-2.3706-.4119-.4118-.9845-.5636-1.5157-.4572-.4056,.7534-.81339,1.5063-1.2273,2.2585,.0818,.2072,.2051,.4017,.3725,.5692,.6546,.6546,1.716,.6546,2.3706,.0001Z" style="opacity: 0.1; transform-origin: 357.269px 247.681px;" class="animable"></path></g><g id="elx7lareeko5"><path d="M288.43739,329.6663c.65461-.6546,.65461-1.7159,0-2.3705-.6546-.6546-1.716-.6546-2.3706,0s-.6546,1.716,0,2.3706,1.7159,.6545,2.3706-.0001Z" style="opacity: 0.1; transform-origin: 287.252px 328.481px;" class="animable"></path></g><g id="el5v5rybaogfx"><path d="M280.26739,337.8362c.65461-.6546,.65461-1.7158,0-2.3705-.6546-.6546-1.7159-.6546-2.3705,0s-.6546,1.7159,0,2.3705c.6546,.6547,1.7159,.6547,2.3705,0Z" style="opacity: 0.1; transform-origin: 279.082px 336.651px;" class="animable"></path></g><g id="el15jr3d9e668"><path d="M295.12979,320.6035c.6546,.6546,1.7158,.6545,2.3705-.0001,.6546-.6546,.6546-1.7159,0-2.3705-.6547-.6546-1.7159-.6546-2.3705,0-.6547,.6546-.6547,1.716,0,2.3706Z" style="opacity: 0.1; transform-origin: 296.315px 319.418px;" class="animable"></path></g><g id="elon2us3jmouj"><path d="M270.19019,328.5583c.6546-.6546,.6545-1.7159,0-2.3705-.6546-.6546-1.7159-.6546-2.3705,0s-.6546,1.716,0,2.3706c.6545,.6545,1.7159,.6545,2.3705-.0001Z" style="opacity: 0.1; transform-origin: 269.005px 327.373px;" class="animable"></path></g><g id="elq7tefcvsppn"><path d="M261.75639,336.9921c.65461-.6546,.65461-1.716,0-2.3705-.6546-.6546-1.7159-.6547-2.3705-.0001s-.6546,1.716,0,2.3706c.6545,.6546,1.7159,.6546,2.3705,0Z" style="opacity: 0.1; transform-origin: 260.571px 335.807px;" class="animable"></path></g><g id="el0xekn6xvha6q"><path d="M252.57479,344.1527c-.6546-.6545-1.7159-.6546-2.3705,0s-.6546,1.716-.0001,2.3706c.1365,.1365,.2932,.2377,.4577,.3172,.419,.031,.8403,.0538,1.2607,.0799,.2378-.0798,.4628-.2078,.6522-.3972,.6546-.6546,.6546-1.7158,0-2.3705Z" style="opacity: 0.1; transform-origin: 251.39px 345.291px;" class="animable"></path></g><g id="el9fz65jdud1r"><path d="M270.77449,344.242c-.6546-.6547-1.7159-.6546-2.37049,0-.65461,.6547-.65461,1.7159,0,2.3705,.016,.016,.035,.0269,.05159,.0421,.8375-.0793,1.6719-.1691,2.5036-.2681,.45881-.6539,.3996-1.5602-.1847-2.1445Z" style="opacity: 0.1; transform-origin: 269.588px 345.203px;" class="animable"></path></g><g id="eljz6def5to5n"><path d="M293.72029,308.7997c-.6546,.6545-.6546,1.7159,0,2.3705s1.716,.6546,2.3705,0c.6547-.6546,.6546-1.7159,0-2.3705-.6547-.6546-1.7159-.6546-2.3705,0Z" style="opacity: 0.1; transform-origin: 294.906px 309.985px;" class="animable"></path></g><g id="elkqi11zhco1g"><path d="M284.65749,320.233c.6546,.6546,1.7159,.6547,2.37051,.0001,.65459-.6546,.65459-1.7159-.00011-2.3705-.6546-.6546-1.7158-.6546-2.3704,0-.6547,.6546-.6547,1.7158,0,2.3704Z" style="opacity: 0.1; transform-origin: 285.843px 319.048px;" class="animable"></path></g><g id="el9t0eoc44jag"><path d="M278.858,328.403c.65459-.6546,.65459-1.7159,0-2.3705-.65461-.6546-1.71591-.6546-2.37051,0s-.6547,1.7159-.0001,2.3705c.65461,.6547,1.716,.6547,2.37061,0Z" style="opacity: 0.1; transform-origin: 277.673px 327.218px;" class="animable"></path></g><g id="el0g9ur6ek9d5"><path d="M261.37169,345.8894c.6546-.6546,.6546-1.716,0-2.3706-.65469-.6546-1.716-.6545-2.3706,.0001s-.6546,1.7158,0,2.3704c.6546,.6547,1.71591,.6547,2.3706,.0001Z" style="opacity: 0.1; transform-origin: 260.186px 344.704px;" class="animable"></path></g><g id="elt94mwlzvz8e"><path d="M270.43449,336.8265c.6547-.6546,.6546-1.7159,0-2.3705s-1.7158-.6546-2.37049,0c-.65461,.6546-.65471,1.7159,0,2.3705,.65459,.6546,1.71589,.6546,2.37049,0Z" style="opacity: 0.1; transform-origin: 269.249px 335.641px;" class="animable"></path></g><g id="elyzhknwia6jd"><path d="M332.19509,294.4036c.6547-.6546,.6547-1.7158,0-2.3704-.6546-.6546-1.7159-.6547-2.3705-.0001-.6545,.6545-.6545,1.7159,.0001,2.3705s1.7159,.6546,2.3704,0Z" style="opacity: 0.1; transform-origin: 331.01px 293.218px;" class="animable"></path></g><g id="el2qoxb39dl08"><path d="M314.78589,318.6715c-.6546-.6546-1.71589-.6546-2.3706,0-.6546,.6546-.6546,1.716,0,2.3706,.65471,.6546,1.7159,.6546,2.3706-.0001,.6546-.6546,.6546-1.7158,0-2.3705Z" style="opacity: 0.1; transform-origin: 313.601px 319.857px;" class="animable"></path></g><g id="elckgvbqf5u9"><path d="M339.56189,293.8955c.6546,.6546,1.7159,.6546,2.3705,0,.65461-.6546,.65461-1.7159,0-2.3704-.6546-.6547-1.7159-.6547-2.3705-.0001-.6547,.6546-.6546,1.7159,0,2.3705Z" style="opacity: 0.1; transform-origin: 340.747px 292.71px;" class="animable"></path></g><g id="elvwukfqsfsd"><path d="M306.36239,329.4655c.65461-.6546,.65461-1.7159,0-2.3705-.6547-.6546-1.7159-.6546-2.3705,0-.6547,.6546-.6547,1.716,0,2.3706,.6546,.6546,1.7158,.6545,2.3705-.0001Z" style="opacity: 0.1; transform-origin: 305.177px 328.28px;" class="animable"></path></g><g id="elyw2evqm3to"><path d="M323.76139,300.4669c-.6546-.6546-1.7159-.6547-2.3705-.0001s-.6546,1.716,0,2.3706,1.7159,.6545,2.3705-.0001c.6547-.6546,.6547-1.7158,0-2.3704Z" style="opacity: 0.1; transform-origin: 322.576px 301.652px;" class="animable"></path></g><g id="eloea3ju2b40t"><path d="M323.57749,293.8097c.6546-.6546,.65451-1.7159-.0001-2.3706-.6546-.6546-1.7158-.6546-2.37039,0-.65471,.6547-.65481,1.716-.00011,2.3706,.6546,.6546,1.7159,.6546,2.3706,0Z" style="opacity: 0.1; transform-origin: 322.392px 292.624px;" class="animable"></path></g><g id="el1m74cceeq5"><path d="M357.23329,273.8536c-.6546,.6546-.6546,1.716,0,2.3706,.05671,.0567,.1201,.1021,.1824,.149,.3396-.9958,.6636-1.9987,.9737-3.0078-.4191,.0073-.8363,.1683-1.1561,.4882Z" style="opacity: 0.1; transform-origin: 357.566px 274.869px;" class="animable"></path></g><g id="elrmine49iofm"><path d="M348.62469,282.4621c-.6546,.6547-.6546,1.716,0,2.3706,.6547,.6546,1.7159,.6546,2.3706,0,.6546-.6546,.6546-1.7159,0-2.3706-.6546-.6546-1.716-.6546-2.3706,0Z" style="opacity: 0.1; transform-origin: 349.81px 283.647px;" class="animable"></path></g><g id="el78eruh21a49"><path d="M323.37669,309.3641c-.6546-.6546-1.716-.6546-2.3706,0-.6546,.6547-.6546,1.716,0,2.3706s1.71591,.6546,2.3706,0c.6546-.6546,.6546-1.716,0-2.3706Z" style="opacity: 0.1; transform-origin: 322.191px 310.549px;" class="animable"></path></g><g id="ely9jtpws582"><path d="M332.43959,302.6718c.6546-.6546,.6545-1.7159,0-2.3705-.6547-.6546-1.7159-.6547-2.3705-.0001-.6547,.6547-.6547,1.716,0,2.3706,.6545,.6546,1.7158,.6546,2.3705,0Z" style="opacity: 0.1; transform-origin: 331.254px 301.487px;" class="animable"></path></g><g id="elht8pgxfe7cs"><path d="M297.25509,338.5713c.6782-.6301,.7173-1.6907,.0872-2.3689-.63-.6783-1.6907-.7174-2.3689-.0873-.6783,.63-.7173,1.6906-.0873,2.3689,.6301,.6783,1.6907,.7173,2.369,.0873Z" style="opacity: 0.1; transform-origin: 296.114px 337.343px;" class="animable"></path></g><g id="el4gu7m8t2ipv"><path d="M339.94669,282.6277c-.6546,.6546-.65469,1.7159-.0001,2.3705,.6546,.6546,1.716,.6546,2.3706,0s.6546-1.7159,0-2.3705-1.7159-.6546-2.3705,0Z" style="opacity: 0.1; transform-origin: 341.132px 283.813px;" class="animable"></path></g><g id="elxjn35m7tcjp"><path d="M306.11789,321.1974c.6547-.6546,.6547-1.7159,0-2.3705-.6546-.6546-1.7158-.6546-2.3704,0-.6546,.6545-.6546,1.7159,0,2.3705s1.7159,.6545,2.3704,0Z" style="opacity: 0.1; transform-origin: 304.933px 320.012px;" class="animable"></path></g><g id="elv81dvj66gka"><path d="M315.17069,309.7742c-.6546-.6546-1.716-.6545-2.3705,0-.6546,.6546-.6547,1.7159-.0001,2.3705,.6546,.6547,1.716,.6546,2.3706,0,.6545-.6546,.6546-1.7159,0-2.3705Z" style="opacity: 0.1; transform-origin: 313.985px 310.96px;" class="animable"></path></g><g id="eljhsql0qwdch"><path d="M351.20359,273.7412c-.65459-.6546-1.7158-.6545-2.3704,0-.6546,.6546-.6546,1.7159,0,2.3705s1.71581,.6546,2.3704,0c.6546-.6545,.6547-1.7159,0-2.3705Z" style="opacity: 0.1; transform-origin: 350.018px 274.926px;" class="animable"></path></g><g id="eld6flp735vq9"><path d="M314.51459,302.8726c.6546-.6546,.6546-1.716,0-2.3706-.6547-.6546-1.716-.6546-2.37059,0-.65461,.6546-.65471,1.716,0,2.3706,.65459,.6546,1.71589,.6546,2.37059,0Z" style="opacity: 0.1; transform-origin: 313.329px 301.687px;" class="animable"></path></g><g id="elvdisnsfpcu"><path d="M357.61809,264.9563c-.6546,.6546-.6546,1.7159,0,2.3705,.6546,.6547,1.71591,.6546,2.3705,0,.0296-.0296,.0509-.0641,.0778-.0953,.1209-.5007,.24061-1.0019,.3543-1.5054-.072-.2815-.21169-.5494-.4321-.7698-.65459-.6546-1.7159-.6546-2.3705,0Z" style="opacity: 0.1; transform-origin: 358.774px 266.142px;" class="animable"></path></g><g id="elxuo7ggjagx"><path d="M277.02169,344.8359c-.2086,.2087-.3432,.4604-.4188,.7254,.9814-.1716,1.9594-.353,2.93111-.5518-.04511-.059-.08771-.1195-.14171-.1735-.6546-.6546-1.716-.6547-2.3706-.0001Z" style="opacity: 0.1; transform-origin: 278.068px 344.953px;" class="animable"></path></g><g id="el3uzt0hnv1wp"><path d="M289.51429,337.801c.6545-.6545,.6546-1.7158,0-2.3705-.6546-.6546-1.7159-.6545-2.3705,0-.6546,.6547-.6546,1.716,0,2.3706s1.7159,.6545,2.3705-.0001Z" style="opacity: 0.1; transform-origin: 288.329px 336.616px;" class="animable"></path></g><g id="el8ox5rtnns4g"><path d="M297.68429,327.2605c-.6546-.6546-1.7159-.6545-2.3705,.0001s-.6547,1.7159-.0001,2.3705,1.7159,.6546,2.3705,0c.6547-.6546,.6547-1.716,.0001-2.3706Z" style="opacity: 0.1; transform-origin: 296.499px 328.446px;" class="animable"></path></g></g><g id="ele0q2f8tk07"><g style="opacity: 0.3; transform-origin: 253.066px 307.435px;" class="animable"><path d="M284.72769,328.1102c-30.3114,6.5747-63.3425,1.6647-89.371-15.203-16.7819-10.8755-30.3259-26.8221-38.3547-45.074,8.8177,35.1607,35.7036,64.7466,73.09849,75.2696,47.1253,13.2612,95.7954-8.0142,119.029-48.6812-18.269,16.4125-40.4448,28.4922-64.4018,33.6886Z" id="elbuv4d8rwexw" class="animable" style="transform-origin: 253.066px 307.435px;"></path></g></g></g></g><defs>     <filter id="active" height="200%">         <feMorphology in="SourceAlpha" result="DILATED" operator="dilate" radius="2"></feMorphology>                <feFlood flood-color="#32DFEC" flood-opacity="1" result="PINK"></feFlood>        <feComposite in="PINK" in2="DILATED" operator="in" result="OUTLINE"></feComposite>        <feMerge>            <feMergeNode in="OUTLINE"></feMergeNode>            <feMergeNode in="SourceGraphic"></feMergeNode>        </feMerge>    </filter>    <filter id="hover" height="200%">        <feMorphology in="SourceAlpha" result="DILATED" operator="dilate" radius="2"></feMorphology>                <feFlood flood-color="#ff0000" flood-opacity="0.5" result="PINK"></feFlood>        <feComposite in="PINK" in2="DILATED" operator="in" result="OUTLINE"></feComposite>        <feMerge>            <feMergeNode in="OUTLINE"></feMergeNode>            <feMergeNode in="SourceGraphic"></feMergeNode>        </feMerge>            <feColorMatrix type="matrix" values="0   0   0   0   0                0   1   0   0   0                0   0   0   0   0                0   0   0   1   0 "></feColorMatrix>    </filter></defs></svg>